<svg width="206" height="49" viewBox="0 0 206 49" fill="none" xmlns="http://www.w3.org/2000/svg">
<path d="M25.812 2.82205V10.7281H9.17804V16.5598H24.5792V23.6243H9.17804V29.2603H25.812V37.1663H0V2.82205H25.812Z" fill="#1E3148"/>
<path d="M59.3249 11.0216C62.3386 11.0216 64.6184 12.1175 66.1742 14.3093C67.7251 16.5011 68.5029 19.1625 68.5029 22.2936V37.1663H59.5206V22.1566C59.5206 21.0754 59.2662 20.1361 58.7574 19.3386C58.2584 18.5314 57.5049 18.1253 56.4873 18.1253C55.4012 18.1253 54.5989 18.5461 54.0803 19.3778C53.5568 20.2144 53.2633 21.2173 53.1997 22.3915V37.1663H44.2173V22.1566C44.2173 21.0509 43.9727 20.1018 43.4933 19.3191C43.0236 18.5265 42.2653 18.1253 41.2232 18.1253C40.1371 18.1253 39.3152 18.5656 38.7575 19.4365C38.2095 20.2975 37.9356 21.3151 37.9356 22.4893V37.1663H28.9141V11.6087H37.9356V15.0334C38.4541 13.8347 39.3641 12.8709 40.6557 12.1371C41.9473 11.3935 43.2976 11.0216 44.7066 11.0216C46.0764 11.0216 47.3729 11.3837 48.6009 12.098C49.824 12.8171 50.7535 13.7809 51.3797 14.9942C52.1625 13.6929 53.2682 12.7046 54.7065 12.0392C56.1547 11.3641 57.6909 11.0216 59.3249 11.0216Z" fill="#1E3148"/>
<path d="M97.1608 23.82C97.1608 24.7985 97.0727 25.5715 96.9064 26.1292H78.9613C79.612 29.3386 81.9016 30.9433 85.8301 30.9433C88.4769 30.9433 90.517 30.4687 91.9553 29.5147L95.0473 34.955C92.2685 36.8239 88.8683 37.7534 84.8517 37.7534C80.6638 37.7534 77.1853 36.5597 74.4212 34.1722C71.6521 31.7848 70.2725 28.5313 70.2725 24.4071C70.2725 20.3905 71.5543 17.1566 74.1276 14.7007C76.6961 12.2496 79.9887 11.0216 84.0102 11.0216C87.8947 11.0216 91.06 12.1909 93.5013 14.5246C95.9377 16.8631 97.1608 19.96 97.1608 23.82ZM83.971 17.4013C82.7577 17.4013 81.7401 17.7926 80.9182 18.5754C80.1061 19.3582 79.5337 20.3562 79.1961 21.5695H88.4329C88.1051 18.7907 86.6178 17.4013 83.971 17.4013Z" fill="#1E3148"/>
<path d="M114.933 11.0216C115.609 11.0216 116.245 11.0705 116.832 11.1586V20.8259C116.02 20.41 114.88 20.1996 113.407 20.1996C111.646 20.1996 110.3 20.8454 109.376 22.137C108.461 23.4286 108.006 25.0088 108.006 26.8728V37.1663H98.9844V11.6087H107.673V19.0646C107.893 16.8729 108.632 14.9893 109.885 13.4091C111.147 11.8191 112.83 11.0216 114.933 11.0216Z" fill="#1E3148"/>
<path d="M136.966 15.1312V1.68701H145.988V37.1663H136.966V33.6243C136.233 34.9452 135.156 35.9628 133.738 36.6771C132.314 37.3914 130.802 37.7534 129.197 37.7534C125.44 37.7534 122.475 36.4912 120.313 33.9569C118.16 31.4129 117.084 28.2182 117.084 24.3679C117.084 20.5079 118.16 17.3181 120.313 14.7985C122.475 12.2838 125.44 11.0216 129.197 11.0216C130.773 11.0216 132.28 11.3836 133.718 12.0979C135.151 12.8171 136.233 13.8298 136.966 15.1312ZM131.507 30.7867C133.307 30.7867 134.687 30.1752 135.655 28.9472C136.619 27.7241 137.103 26.1977 137.103 24.3679C137.103 22.5284 136.614 20.9971 135.636 19.7691C134.657 18.546 133.278 17.9296 131.507 17.9296C129.77 17.9296 128.424 18.5558 127.475 19.8083C126.536 21.0509 126.066 22.5676 126.066 24.3679C126.066 26.1292 126.536 27.6458 127.475 28.908C128.424 30.1605 129.77 30.7867 131.507 30.7867Z" fill="#1E3148"/>
<path d="M152.049 14.6615C154.749 12.2349 158.14 11.0216 162.225 11.0216C166.32 11.0216 169.725 12.2349 172.44 14.6615C175.151 17.0783 176.511 20.3122 176.511 24.3679C176.511 28.453 175.165 31.7064 172.479 34.1331C169.803 36.5499 166.383 37.7534 162.225 37.7534C158.101 37.7534 154.696 36.5499 152.01 34.1331C149.334 31.7064 147.998 28.453 147.998 24.3679C147.998 20.3122 149.348 17.0783 152.049 14.6615ZM162.225 18.0862C160.552 18.0862 159.26 18.7075 158.35 19.9452C157.435 21.1879 156.98 22.6752 156.98 24.4071C156.98 26.1194 157.44 27.592 158.37 28.8298C159.309 30.0724 160.591 30.6888 162.225 30.6888C163.893 30.6888 165.19 30.0773 166.119 28.8493C167.059 27.6262 167.528 26.1439 167.528 24.4071C167.528 22.6458 167.068 21.1537 166.158 19.9257C165.244 18.7026 163.932 18.0862 162.225 18.0862Z" fill="#1E3148"/>
<path d="M197.272 15.1899V11.6087H206V34.3679C206 38.7906 204.64 42.2935 201.93 44.8767C199.215 47.4598 195.633 48.7514 191.186 48.7514C189.122 48.7514 186.94 48.4481 184.631 47.8512C182.321 47.2641 180.413 46.4324 178.916 45.3659L182.243 39.4168C185.022 41.1487 187.722 42.0196 190.345 42.0196C192.468 42.0196 194.161 41.3346 195.413 39.9648C196.675 38.5949 197.341 36.8288 197.409 34.6615V33.6243C196.651 35.0088 195.521 36.046 194.024 36.7358C192.522 37.411 190.917 37.7534 189.21 37.7534C185.555 37.7534 182.654 36.4618 180.501 33.8787C178.359 31.2955 177.292 28.1253 177.292 24.368C177.292 20.6645 178.359 17.5138 180.501 14.9159C182.654 12.323 185.54 11.0216 189.171 11.0216C190.863 11.0216 192.448 11.3739 193.926 12.0784C195.399 12.7829 196.514 13.8201 197.272 15.1899ZM187.742 29.0255C188.721 30.3073 190.09 30.9433 191.852 30.9433C193.623 30.9433 194.988 30.3073 195.942 29.0255C196.891 27.7486 197.37 26.1977 197.37 24.368C197.37 22.5284 196.886 20.9825 195.922 19.73C194.953 18.4678 193.603 17.8318 191.871 17.8318C190.095 17.8318 188.721 18.4727 187.742 19.7496C186.764 21.0314 186.274 22.5676 186.274 24.368C186.274 26.1977 186.764 27.7486 187.742 29.0255Z" fill="#1E3148"/>
<path d="M154.886 4.5695C155.057 4.53036 155.253 4.49122 155.424 4.49122C156.222 4.49122 156.52 4.92174 156.52 5.77791C156.52 7.17712 155.723 8.01371 154.637 8.38063C154.558 8.40999 154.465 8.44913 154.426 8.47359C154.465 7.20158 154.622 5.98338 154.886 4.5695ZM154.504 11.6292C154.441 10.9638 154.411 10.1908 154.426 9.53523C154.558 9.61351 154.739 9.65264 154.94 9.65264C155.096 9.65264 155.224 9.62818 155.385 9.57437C157.19 9.02642 158.252 7.55872 158.252 5.74855C158.252 4.06069 157.166 3.17029 155.566 3.17029C155.424 3.17029 155.277 3.18007 155.121 3.20942C155.082 2.89142 154.778 2.67126 154.348 2.67126C153.864 2.67126 153.521 2.94524 153.443 3.32684C153.394 3.53721 153.34 3.71823 153.301 3.91392C152.998 4.13897 152.763 4.42762 152.763 4.66245C152.763 4.89728 152.88 5.05384 153.076 5.13212C152.856 6.546 152.738 7.87183 152.738 9.11449C152.738 9.7456 152.777 10.4256 152.826 10.9247C152.934 11.9961 153.223 12.5098 153.864 12.5098C154.402 12.5098 154.558 12.2309 154.504 11.6292Z" fill="#0097B2"/>
<path d="M165.022 4.42751C165.022 3.50775 164.435 3.05276 163.398 3.05276C162.077 3.05276 160.727 4.08505 160.071 5.60657C159.626 5.41088 159.22 5.72399 159.22 6.1007C159.22 6.4187 159.376 6.63885 159.743 6.8639C159.719 7.0596 159.719 7.15255 159.719 7.34825C159.719 9.01164 161.054 9.78464 162.654 9.78464C163.545 9.78464 164.499 9.51066 165.076 9.07524C165.443 8.80127 165.575 8.56644 165.575 8.31693C165.575 7.7641 165.076 7.62222 164.645 7.91087C164.083 8.27779 163.373 8.49795 162.664 8.49795C161.945 8.49795 161.397 8.1457 161.397 7.29443V7.1232C163.114 7.04492 165.022 6.1007 165.022 4.42751ZM163.388 4.3101C163.505 4.3101 163.584 4.39816 163.584 4.53025C163.584 5.12223 162.982 5.76312 161.749 5.82672C162.077 4.84336 162.825 4.3101 163.388 4.3101Z" fill="#0097B2"/>
<path d="M171.64 4.31991C171.914 4.19271 172.056 3.98234 172.056 3.77197C172.056 3.19467 171.64 3.07726 171.234 3.19467C170.618 3.36591 170.055 3.44418 169.453 3.48332C169.571 2.67119 169.673 2.03029 169.806 1.3894C169.884 0.993118 169.595 0.719147 169.174 0.719147C168.768 0.719147 168.392 0.953979 168.274 1.3209C168.088 1.88352 167.907 2.72501 167.775 3.498C167.423 3.48332 167.134 3.44418 166.86 3.39037C166.215 3.24849 165.877 3.44418 165.877 3.98234C165.877 4.38841 166.136 4.66238 166.635 4.76512C166.899 4.83361 167.252 4.87275 167.579 4.88253C167.501 5.59192 167.462 6.20836 167.462 6.8248C167.462 8.87958 168.377 9.76999 169.781 9.76999C171.087 9.76999 172.139 8.90404 172.139 8.27782C172.139 7.9109 171.89 7.68585 171.562 7.68585C171.376 7.68585 171.205 7.7788 171.102 7.88644C170.828 8.16041 170.393 8.3561 169.938 8.3561C169.346 8.3561 169.165 7.88644 169.165 6.78566C169.165 6.22304 169.214 5.59192 169.297 4.87275C170.148 4.81893 170.906 4.6477 171.64 4.31991Z" fill="#0097B2"/>
<path d="M179.237 4.56943C179.408 4.5303 179.604 4.49116 179.775 4.49116C180.572 4.49116 180.871 4.92168 180.871 5.77784C180.871 7.17706 180.073 8.01365 178.987 8.38057C178.909 8.40993 178.816 8.44907 178.777 8.47353C178.816 7.20152 178.972 5.98332 179.237 4.56943ZM178.855 11.6291C178.791 10.9637 178.762 10.1907 178.777 9.53517C178.909 9.61344 179.09 9.65258 179.29 9.65258C179.447 9.65258 179.574 9.62812 179.736 9.57431C181.541 9.02636 182.603 7.55866 182.603 5.74849C182.603 4.06063 181.516 3.17022 179.917 3.17022C179.775 3.17022 179.628 3.18001 179.471 3.20936C179.432 2.89136 179.129 2.6712 178.698 2.6712C178.214 2.6712 177.872 2.94518 177.793 3.32678C177.744 3.53715 177.691 3.71817 177.651 3.91386C177.348 4.13891 177.113 4.42756 177.113 4.66239C177.113 4.89722 177.231 5.05378 177.426 5.13205C177.206 6.54594 177.089 7.87177 177.089 9.11442C177.089 9.74554 177.128 10.4256 177.177 10.9246C177.285 11.996 177.573 12.5097 178.214 12.5097C178.752 12.5097 178.909 12.2309 178.855 11.6291Z" fill="#0097B2"/>
<path d="M184.686 9.15361C184.96 9.52054 185.513 9.82386 185.904 9.82386C186.374 9.82386 186.731 9.53521 186.731 9.16829C186.731 8.93346 186.663 8.78669 186.349 8.59099C185.968 8.35616 185.772 7.93542 185.709 7.29452C185.616 6.52153 185.576 5.7094 185.576 4.93641C185.576 3.6644 185.694 2.26519 185.841 1.02253C185.89 0.538188 185.63 3.05176e-05 184.936 3.05176e-05C184.515 3.05176e-05 184.319 0.313141 184.265 0.626251C184.045 2.07928 183.952 3.56166 183.952 4.96576C183.952 5.77789 183.991 6.54599 184.055 7.3092C184.133 8.06751 184.295 8.63013 184.686 9.15361Z" fill="#0097B2"/>
<path d="M191.248 4.41285C191.263 4.64768 191.273 4.89719 191.273 5.0831C191.273 7.33358 190.7 8.48818 189.966 8.48818C189.638 8.48818 189.413 8.12125 189.413 7.09875C189.413 5.7876 189.991 4.33457 190.881 4.33457C190.935 4.33457 191.028 4.33457 191.116 4.34925C191.155 4.35904 191.209 4.35904 191.248 4.35904V4.41285ZM191.669 3.46863C191.561 3.24847 191.233 3.09192 190.778 3.09192C188.968 3.09192 187.74 5.12224 187.74 7.08407C187.74 8.76215 188.508 9.79443 189.966 9.79443C191.052 9.79443 191.918 9.02634 192.246 7.70051C192.53 8.70833 193.371 9.51068 193.763 9.51068C194.286 9.51068 194.536 9.24649 194.536 8.9187C194.536 8.80129 194.472 8.68387 194.223 8.41968C193.278 7.3874 193.004 5.724 192.872 4.2563C192.809 3.62518 192.584 3.34143 192.046 3.34143C191.889 3.34143 191.757 3.39035 191.669 3.46863Z" fill="#0097B2"/>
<path d="M199.159 4.72604C199.277 5.55284 199.345 6.57534 199.345 7.79354C199.345 8.04305 199.345 8.29256 199.33 8.56653C199.291 9.30038 199.619 9.74558 200.314 9.74558C200.876 9.74558 201.087 9.43247 201.087 8.64481C201.072 7.3092 200.994 6.11546 200.876 5.10764C200.691 3.6008 200.118 3.11645 199.105 3.11645C198.332 3.11645 197.589 3.63994 197.075 4.70157C196.84 3.65461 196.331 2.94522 195.793 2.94522C195.333 2.94522 195.113 3.14092 195.113 3.48338C195.113 3.73289 195.206 3.86498 195.348 4.09981C195.466 4.29551 195.598 4.72604 195.598 5.90509C195.598 6.77104 195.529 7.63698 195.451 8.60567C195.387 9.4178 195.769 9.70645 196.385 9.70645C196.816 9.70645 197.036 9.57435 197.09 8.78668C197.197 7.44129 197.643 6.16928 198.088 5.28866C198.416 4.64776 198.675 4.47653 198.9 4.47653C199.042 4.47653 199.135 4.58416 199.159 4.72604Z" fill="#0097B2"/>
</svg>
